<?xml version="1.0" encoding="UTF-8" standalone="no"?>
<svg width="50px" height="50px" viewBox="0 0 50 50" version="1.1" xmlns="http://www.w3.org/2000/svg" xmlns:xlink="http://www.w3.org/1999/xlink" xmlns:sketch="http://www.bohemiancoding.com/sketch/ns">
    <!-- Generator: Sketch 3.4.2 (15857) - http://www.bohemiancoding.com/sketch -->
    <title>Logo</title>
    <desc>Created with Sketch.</desc>
    <defs></defs>
    <g id="Page-1" stroke="none" stroke-width="1" fill="none" fill-rule="evenodd" sketch:type="MSPage">
        <g id="Test-page_home" sketch:type="MSArtboardGroup" transform="translate(-40.000000, -15.000000)" fill="#4A8CFA">
            <g id="Header" sketch:type="MSLayerGroup" transform="translate(0.000000, 15.000000)">
                <path d="M90,25 C90,11.1928813 78.8071187,0 65,0 C51.1928813,0 40,11.1928813 40,25 C40,38.8071187 51.1928813,50 65,50 C78.8071187,50 90,38.8071187 90,25 Z M70.5,13 L70.5,28 C70.5,31.0505983 68.5814607,32.8959116 65.5,33 L65,33 L64.5,33 C61.3906848,32.896312 59.5,30.5776733 59.5,27.5 L59.5,13 L55.5,13 L55.5,27.6216857 C55.5,32.8124609 59.7535416,37.0112648 65.0002662,36.9999773 C70.2678067,36.9998765 74.5,32.7919536 74.5,27.6005809 L74.5,13 L70.5,13 Z" id="Logo" sketch:type="MSShapeGroup"></path>
            </g>
        </g>
    </g>
</svg>